# xmcd
#
# Track frame offsets: 
#        150
#        29158
#        53734
#        72792
#        88538
#        112379
#        147102
#        166828
#
# Disc length: 2391 seconds
#
# Revision: 5
# Processed by: cddbd v1.5.2PL0 Copyright (c) Steve Scherf et al.
# Submitted via: ExactAudioCopy v1.3
#
DISCID=6e095508
DTITLE=Breakout - 70a
DYEAR=1970
DGENRE=Blues
TTITLE0=Skad taki duzy deszcz
TTITLE1=Przemijanie
TTITLE2=Dziwny weekend
TTITLE3=Taka droge
TTITLE4=Zapraszamy na korride
TTITLE5=Piekno
TTITLE6=Nie znasz jeszcze zycia
TTITLE7=Przestroga
EXTD=YEAR: 1970
EXTT0=
EXTT1=
EXTT2=
EXTT3=
EXTT4=
EXTT5=
EXTT6=
EXTT7=
PLAYORDER=
